<?xml version="1.0" encoding="UTF-8" standalone="no"?>
<!DOCTYPE svg PUBLIC "-//W3C//DTD SVG 1.1//EN" "http://www.w3.org/Graphics/SVG/1.1/DTD/svg11.dtd">
<svg width="100%" height="100%" viewBox="0 0 614 216" version="1.1" xmlns="http://www.w3.org/2000/svg" xmlns:xlink="http://www.w3.org/1999/xlink" xml:space="preserve" xmlns:serif="http://www.serif.com/" style="fill-rule:evenodd;clip-rule:evenodd;">
    <g>
        <g transform="matrix(0.907894,0,0,0.723431,13.2093,37.9157)">
            <rect x="141.316" y="33.974" width="519.708" height="106.472"/>
        </g>
        <g id="polyline4666" transform="matrix(0.750265,0,0,1,18.58,-11.87)">
            <path d="M107.286,122.43L51.055,122.43" style="fill:none;fill-rule:nonzero;stroke:black;stroke-width:2.86px;stroke-dasharray:50,50;"/>
        </g>
        <g id="polyline4668" transform="matrix(2.11465,0,0,1,-45.332,-11.87)">
            <path d="M51.055,122.43L22.969,122.43" style="fill:none;fill-rule:nonzero;stroke:black;stroke-width:0.95px;"/>
        </g>
        <g id="polyline4670" transform="matrix(1.03102,0,0,1,2.93737,-9.05413)">
            <path d="M135.431,94.344L93.243,94.344" style="fill:none;fill-rule:nonzero;stroke:black;stroke-width:1.38px;"/>
        </g>
        <g id="path4672" transform="matrix(1,0,0,1,-1.22139,-11.87)">
            <path d="M37.012,150.575C37.012,173.719 56.056,192.764 79.2,192.764C102.344,192.764 121.388,173.719 121.388,150.575" style="fill:none;fill-rule:nonzero;stroke:black;stroke-width:2.86px;"/>
        </g>
        <g id="path4674" transform="matrix(1,0,0,1,-1.22139,-11.87)">
            <path d="M37.012,80.241C37.012,57.097 56.056,38.053 79.2,38.053C102.344,38.053 121.388,57.097 121.388,80.241" style="fill:none;fill-rule:nonzero;stroke:black;stroke-width:2.86px;"/>
        </g>
        <g id="polyline4676" transform="matrix(1,0,0,1,-1.22139,-11.87)">
            <path d="M37.012,150.575L37.012,80.241" style="fill:none;fill-rule:nonzero;stroke:black;stroke-width:2.86px;"/>
        </g>
        <g id="polyline4678" transform="matrix(1,0,0,1,-1.22139,-11.87)">
            <path d="M121.388,80.241L121.388,150.575" style="fill:none;fill-rule:nonzero;stroke:black;stroke-width:2.86px;"/>
        </g>
        <g id="path4680" transform="matrix(1,0,0,1,-1.22139,-11.87)">
            <path d="M65.157,178.661C65.157,170.957 71.496,164.618 79.2,164.618C86.904,164.618 93.243,170.957 93.243,178.661" style="fill:none;fill-rule:nonzero;stroke:black;stroke-width:0.95px;"/>
        </g>
        <g id="path4682" transform="matrix(1,0,0,1,-1.22139,-11.87)">
            <path d="M51.055,164.618C57.678,155.761 68.111,150.535 79.17,150.535C90.23,150.535 100.663,155.761 107.286,164.618" style="fill:none;fill-rule:nonzero;stroke:black;stroke-width:3.75px;"/>
        </g>
        <g id="polyline4684" transform="matrix(1,0,0,1.12076,0.752925,-35.115)">
            <path d="M51.055,220.85L51.055,164.618" style="fill:none;fill-rule:nonzero;stroke:black;stroke-width:1.32px;"/>
        </g>
        <g id="polyline4686" transform="matrix(1,0,0,1.09051,-1.22139,-23.3573)">
            <path d="M79.2,24.069L79.2,80.241" style="fill:none;fill-rule:nonzero;stroke:black;stroke-width:1.34px;"/>
        </g>
        <g id="polyline4688" transform="matrix(1,0,0,1,-1.22139,-11.87)">
            <path d="M65.157,206.747L65.157,178.661" style="fill:none;fill-rule:nonzero;stroke:black;stroke-width:1.4px;"/>
        </g>
        <g id="polyline4690" transform="matrix(1,0,0,1,-1.22139,-11.87)">
            <path d="M93.243,178.661L93.243,206.747" style="fill:none;fill-rule:nonzero;stroke:black;stroke-width:1.4px;"/>
        </g>
        <g id="polyline4692" transform="matrix(1,0,0,1,-1.19163,-16.0949)">
            <path d="M58.076,80.241L100.264,80.241" style="fill:none;fill-rule:nonzero;stroke:black;stroke-width:5.65px;"/>
        </g>
        <g id="polyline2302" transform="matrix(0.750265,0,0,1,18.58,-37.1401)">
            <path d="M107.286,122.43L51.055,122.43" style="fill:none;fill-rule:nonzero;stroke:black;stroke-width:2.86px;stroke-dasharray:50,50;"/>
        </g>
        <g id="path9237" transform="matrix(1,0,0,1,-6.06576,-11.7901)">
            <path d="M105.139,97.08L112.839,88.595" style="fill:none;stroke:black;stroke-width:1.52px;"/>
        </g>
        <g id="path9239" transform="matrix(1,0,0,1,4.88978,-11.9788)">
            <path d="M51.995,96.853L44.295,88.368" style="fill:none;stroke:black;stroke-width:1.52px;"/>
        </g>
        <g transform="matrix(0.795731,0,0,0.795731,23.7091,1.95619)">
            <g transform="matrix(107.239,0,0,107.239,155.602,162.995)">
                <path d="M0.291,-0.728C0.29,-0.701 0.288,-0.672 0.284,-0.642C0.28,-0.612 0.273,-0.58 0.263,-0.547C0.346,-0.666 0.41,-0.726 0.454,-0.726C0.466,-0.726 0.48,-0.723 0.495,-0.716C0.51,-0.709 0.524,-0.7 0.538,-0.688C0.551,-0.675 0.563,-0.661 0.572,-0.646C0.581,-0.63 0.586,-0.612 0.586,-0.594C0.586,-0.543 0.568,-0.498 0.531,-0.458C0.494,-0.419 0.441,-0.383 0.37,-0.35C0.381,-0.313 0.399,-0.271 0.426,-0.224C0.453,-0.177 0.49,-0.125 0.535,-0.069L0.428,0.014C0.382,-0.046 0.344,-0.106 0.314,-0.165C0.284,-0.225 0.262,-0.286 0.249,-0.347C0.282,-0.36 0.31,-0.373 0.334,-0.386C0.359,-0.398 0.378,-0.412 0.394,-0.428C0.41,-0.443 0.422,-0.461 0.429,-0.48C0.437,-0.5 0.441,-0.523 0.441,-0.55C0.441,-0.556 0.441,-0.563 0.44,-0.569C0.44,-0.575 0.439,-0.581 0.437,-0.588L0.4,-0.618C0.368,-0.597 0.342,-0.572 0.322,-0.544C0.301,-0.516 0.283,-0.485 0.268,-0.45C0.253,-0.416 0.24,-0.378 0.228,-0.337C0.217,-0.296 0.204,-0.252 0.191,-0.205C0.181,-0.17 0.173,-0.14 0.166,-0.113C0.158,-0.087 0.151,-0.065 0.145,-0.047C0.138,-0.029 0.131,-0.016 0.124,-0.007C0.117,0.002 0.109,0.007 0.1,0.007C0.093,0.007 0.085,0.004 0.076,-0.002C0.068,-0.007 0.059,-0.016 0.051,-0.027C0.044,-0.036 0.038,-0.045 0.032,-0.055C0.027,-0.065 0.023,-0.074 0.019,-0.083C0.016,-0.091 0.013,-0.099 0.011,-0.105C0.01,-0.112 0.009,-0.116 0.009,-0.119C0.009,-0.132 0.013,-0.146 0.02,-0.162C0.028,-0.177 0.037,-0.195 0.047,-0.214C0.058,-0.233 0.07,-0.255 0.082,-0.278C0.094,-0.301 0.105,-0.326 0.115,-0.354C0.128,-0.392 0.138,-0.438 0.145,-0.494C0.151,-0.55 0.155,-0.615 0.155,-0.69L0.291,-0.728Z" style="fill:white;fill-rule:nonzero;"/>
            </g>
            <g transform="matrix(107.239,0,0,107.239,219.433,162.995)">
                <path d="M0.14,-0.255C0.164,-0.26 0.184,-0.265 0.2,-0.27C0.216,-0.275 0.228,-0.283 0.238,-0.293C0.248,-0.303 0.254,-0.316 0.258,-0.333C0.262,-0.35 0.264,-0.372 0.264,-0.4L0.264,-0.422C0.243,-0.42 0.225,-0.416 0.209,-0.41C0.192,-0.382 0.177,-0.355 0.165,-0.33C0.153,-0.305 0.145,-0.28 0.14,-0.255ZM-0.013,-0.121C-0.013,-0.142 -0.011,-0.164 -0.006,-0.188C-0.001,-0.212 0.006,-0.236 0.015,-0.261C0.025,-0.286 0.036,-0.312 0.05,-0.337C0.064,-0.363 0.081,-0.388 0.099,-0.412C0.113,-0.423 0.128,-0.433 0.145,-0.442C0.161,-0.451 0.178,-0.458 0.196,-0.464C0.213,-0.471 0.231,-0.475 0.25,-0.478C0.269,-0.481 0.287,-0.483 0.305,-0.483C0.32,-0.483 0.333,-0.481 0.344,-0.478C0.355,-0.475 0.363,-0.469 0.37,-0.461C0.376,-0.454 0.381,-0.443 0.384,-0.43C0.387,-0.417 0.388,-0.401 0.388,-0.381C0.388,-0.358 0.387,-0.339 0.384,-0.324C0.381,-0.31 0.377,-0.298 0.372,-0.288C0.366,-0.279 0.359,-0.272 0.351,-0.266C0.343,-0.261 0.333,-0.256 0.322,-0.252C0.291,-0.24 0.258,-0.229 0.225,-0.219C0.192,-0.209 0.158,-0.2 0.121,-0.192C0.127,-0.169 0.134,-0.149 0.143,-0.131C0.151,-0.114 0.162,-0.099 0.175,-0.085C0.205,-0.09 0.234,-0.101 0.263,-0.117C0.292,-0.133 0.322,-0.152 0.354,-0.175L0.346,-0.101C0.318,-0.08 0.291,-0.062 0.265,-0.047C0.239,-0.033 0.215,-0.021 0.194,-0.012C0.173,-0.003 0.155,0.003 0.14,0.007C0.125,0.01 0.115,0.012 0.109,0.012C0.102,0.012 0.093,0.01 0.082,0.005C0.072,-0 0.061,-0.008 0.049,-0.018C0.038,-0.027 0.027,-0.04 0.016,-0.054C0.005,-0.069 -0.005,-0.086 -0.013,-0.106L-0.013,-0.121Z" style="fill:white;fill-rule:nonzero;"/>
            </g>
            <g transform="matrix(107.239,0,0,107.239,267.816,162.995)">
                <path d="M0.181,-0.49C0.182,-0.486 0.182,-0.482 0.182,-0.477L0.182,-0.463C0.182,-0.442 0.181,-0.421 0.177,-0.399C0.174,-0.376 0.169,-0.354 0.162,-0.33C0.243,-0.425 0.317,-0.477 0.385,-0.487L0.432,-0.437C0.436,-0.433 0.439,-0.429 0.441,-0.425C0.444,-0.421 0.445,-0.415 0.445,-0.407C0.445,-0.401 0.443,-0.393 0.44,-0.384C0.437,-0.374 0.432,-0.361 0.427,-0.346C0.422,-0.331 0.416,-0.314 0.41,-0.294C0.404,-0.274 0.398,-0.251 0.392,-0.225C0.387,-0.199 0.382,-0.171 0.377,-0.139C0.373,-0.107 0.37,-0.072 0.368,-0.034L0.225,0.006C0.229,-0.043 0.237,-0.097 0.251,-0.154C0.264,-0.212 0.283,-0.274 0.308,-0.341L0.282,-0.368C0.253,-0.357 0.226,-0.335 0.203,-0.303C0.18,-0.271 0.161,-0.228 0.147,-0.176C0.139,-0.148 0.133,-0.123 0.129,-0.101C0.124,-0.079 0.12,-0.061 0.115,-0.046C0.111,-0.031 0.106,-0.02 0.101,-0.012C0.095,-0.004 0.088,-0 0.079,-0C0.071,-0 0.062,-0.004 0.052,-0.011C0.041,-0.018 0.031,-0.028 0.022,-0.04C0.012,-0.051 0.004,-0.064 -0.002,-0.079C-0.009,-0.093 -0.012,-0.108 -0.012,-0.122C-0.012,-0.13 -0.011,-0.137 -0.007,-0.145C-0.004,-0.152 0,-0.16 0.005,-0.167C0.01,-0.174 0.016,-0.182 0.021,-0.191C0.027,-0.199 0.033,-0.208 0.038,-0.218C0.044,-0.23 0.048,-0.247 0.051,-0.268C0.053,-0.289 0.054,-0.316 0.054,-0.347C0.054,-0.364 0.054,-0.381 0.053,-0.398C0.053,-0.416 0.051,-0.434 0.05,-0.452L0.181,-0.49Z" style="fill:white;fill-rule:nonzero;"/>
            </g>
            <g transform="matrix(107.239,0,0,107.239,321.749,162.995)">
                <path d="M0.14,-0.255C0.164,-0.26 0.184,-0.265 0.2,-0.27C0.216,-0.275 0.228,-0.283 0.238,-0.293C0.248,-0.303 0.254,-0.316 0.258,-0.333C0.262,-0.35 0.264,-0.372 0.264,-0.4L0.264,-0.422C0.243,-0.42 0.225,-0.416 0.209,-0.41C0.192,-0.382 0.177,-0.355 0.165,-0.33C0.153,-0.305 0.145,-0.28 0.14,-0.255ZM-0.013,-0.121C-0.013,-0.142 -0.011,-0.164 -0.006,-0.188C-0.001,-0.212 0.006,-0.236 0.015,-0.261C0.025,-0.286 0.036,-0.312 0.05,-0.337C0.064,-0.363 0.081,-0.388 0.099,-0.412C0.113,-0.423 0.128,-0.433 0.145,-0.442C0.161,-0.451 0.178,-0.458 0.196,-0.464C0.213,-0.471 0.231,-0.475 0.25,-0.478C0.269,-0.481 0.287,-0.483 0.305,-0.483C0.32,-0.483 0.333,-0.481 0.344,-0.478C0.355,-0.475 0.363,-0.469 0.37,-0.461C0.376,-0.454 0.381,-0.443 0.384,-0.43C0.387,-0.417 0.388,-0.401 0.388,-0.381C0.388,-0.358 0.387,-0.339 0.384,-0.324C0.381,-0.31 0.377,-0.298 0.372,-0.288C0.366,-0.279 0.359,-0.272 0.351,-0.266C0.343,-0.261 0.333,-0.256 0.322,-0.252C0.291,-0.24 0.258,-0.229 0.225,-0.219C0.192,-0.209 0.158,-0.2 0.121,-0.192C0.127,-0.169 0.134,-0.149 0.143,-0.131C0.151,-0.114 0.162,-0.099 0.175,-0.085C0.205,-0.09 0.234,-0.101 0.263,-0.117C0.292,-0.133 0.322,-0.152 0.354,-0.175L0.346,-0.101C0.318,-0.08 0.291,-0.062 0.265,-0.047C0.239,-0.033 0.215,-0.021 0.194,-0.012C0.173,-0.003 0.155,0.003 0.14,0.007C0.125,0.01 0.115,0.012 0.109,0.012C0.102,0.012 0.093,0.01 0.082,0.005C0.072,-0 0.061,-0.008 0.049,-0.018C0.038,-0.027 0.027,-0.04 0.016,-0.054C0.005,-0.069 -0.005,-0.086 -0.013,-0.106L-0.013,-0.121ZM0.196,-0.536C0.22,-0.569 0.238,-0.599 0.25,-0.626C0.262,-0.653 0.271,-0.677 0.277,-0.699L0.398,-0.687C0.375,-0.66 0.354,-0.635 0.334,-0.61C0.315,-0.585 0.297,-0.56 0.281,-0.536L0.196,-0.536Z" style="fill:white;fill-rule:nonzero;"/>
            </g>
            <g transform="matrix(107.239,0,0,107.239,400.136,162.995)">
                <path d="M0.153,-0.104C0.194,-0.131 0.236,-0.177 0.281,-0.244C0.284,-0.262 0.288,-0.283 0.293,-0.308C0.298,-0.333 0.304,-0.361 0.31,-0.391L0.3,-0.399C0.276,-0.381 0.253,-0.362 0.233,-0.34C0.213,-0.318 0.195,-0.295 0.18,-0.271C0.164,-0.247 0.152,-0.223 0.142,-0.198C0.133,-0.174 0.127,-0.151 0.124,-0.129L0.153,-0.104ZM0.306,0.006C0.299,-0.015 0.294,-0.038 0.29,-0.064C0.286,-0.091 0.283,-0.12 0.281,-0.153C0.26,-0.125 0.239,-0.102 0.22,-0.082C0.2,-0.061 0.182,-0.045 0.166,-0.032C0.15,-0.019 0.135,-0.009 0.123,-0.003C0.111,0.004 0.102,0.007 0.095,0.007C0.088,0.007 0.077,0.002 0.064,-0.007C0.051,-0.016 0.037,-0.03 0.022,-0.049C0.006,-0.069 -0.006,-0.087 -0.013,-0.103C-0.021,-0.118 -0.025,-0.13 -0.025,-0.138C-0.025,-0.142 -0.023,-0.149 -0.021,-0.158C-0.018,-0.168 -0.013,-0.181 -0.006,-0.195C0,-0.209 0.009,-0.225 0.019,-0.243C0.029,-0.261 0.042,-0.28 0.056,-0.3C0.082,-0.335 0.11,-0.368 0.143,-0.397C0.175,-0.426 0.212,-0.454 0.252,-0.479C0.263,-0.471 0.274,-0.462 0.286,-0.455C0.298,-0.447 0.311,-0.44 0.323,-0.432C0.341,-0.501 0.36,-0.564 0.38,-0.618C0.399,-0.673 0.418,-0.719 0.437,-0.757L0.451,-0.763C0.461,-0.76 0.471,-0.754 0.481,-0.744C0.49,-0.735 0.499,-0.724 0.507,-0.712C0.514,-0.7 0.52,-0.688 0.525,-0.677C0.53,-0.665 0.532,-0.656 0.532,-0.649L0.532,-0.619C0.532,-0.614 0.531,-0.608 0.528,-0.601C0.525,-0.594 0.521,-0.587 0.516,-0.578C0.512,-0.57 0.506,-0.561 0.5,-0.551C0.494,-0.541 0.487,-0.53 0.481,-0.518C0.469,-0.495 0.457,-0.469 0.447,-0.441C0.436,-0.413 0.427,-0.383 0.419,-0.354C0.412,-0.324 0.406,-0.294 0.401,-0.264C0.397,-0.234 0.395,-0.205 0.395,-0.178C0.395,-0.153 0.398,-0.129 0.404,-0.105C0.41,-0.081 0.417,-0.056 0.426,-0.03L0.306,0.006Z" style="fill:white;fill-rule:nonzero;"/>
            </g>
            <g transform="matrix(107.239,0,0,107.239,456.322,162.995)">
                <path d="M0.14,-0.255C0.164,-0.26 0.184,-0.265 0.2,-0.27C0.216,-0.275 0.228,-0.283 0.238,-0.293C0.248,-0.303 0.254,-0.316 0.258,-0.333C0.262,-0.35 0.264,-0.372 0.264,-0.4L0.264,-0.422C0.243,-0.42 0.225,-0.416 0.209,-0.41C0.192,-0.382 0.177,-0.355 0.165,-0.33C0.153,-0.305 0.145,-0.28 0.14,-0.255ZM-0.013,-0.121C-0.013,-0.142 -0.011,-0.164 -0.006,-0.188C-0.001,-0.212 0.006,-0.236 0.015,-0.261C0.025,-0.286 0.036,-0.312 0.05,-0.337C0.064,-0.363 0.081,-0.388 0.099,-0.412C0.113,-0.423 0.128,-0.433 0.145,-0.442C0.161,-0.451 0.178,-0.458 0.196,-0.464C0.213,-0.471 0.231,-0.475 0.25,-0.478C0.269,-0.481 0.287,-0.483 0.305,-0.483C0.32,-0.483 0.333,-0.481 0.344,-0.478C0.355,-0.475 0.363,-0.469 0.37,-0.461C0.376,-0.454 0.381,-0.443 0.384,-0.43C0.387,-0.417 0.388,-0.401 0.388,-0.381C0.388,-0.358 0.387,-0.339 0.384,-0.324C0.381,-0.31 0.377,-0.298 0.372,-0.288C0.366,-0.279 0.359,-0.272 0.351,-0.266C0.343,-0.261 0.333,-0.256 0.322,-0.252C0.291,-0.24 0.258,-0.229 0.225,-0.219C0.192,-0.209 0.158,-0.2 0.121,-0.192C0.127,-0.169 0.134,-0.149 0.143,-0.131C0.151,-0.114 0.162,-0.099 0.175,-0.085C0.205,-0.09 0.234,-0.101 0.263,-0.117C0.292,-0.133 0.322,-0.152 0.354,-0.175L0.346,-0.101C0.318,-0.08 0.291,-0.062 0.265,-0.047C0.239,-0.033 0.215,-0.021 0.194,-0.012C0.173,-0.003 0.155,0.003 0.14,0.007C0.125,0.01 0.115,0.012 0.109,0.012C0.102,0.012 0.093,0.01 0.082,0.005C0.072,-0 0.061,-0.008 0.049,-0.018C0.038,-0.027 0.027,-0.04 0.016,-0.054C0.005,-0.069 -0.005,-0.086 -0.013,-0.106L-0.013,-0.121Z" style="fill:white;fill-rule:nonzero;"/>
            </g>
            <g transform="matrix(107.239,0,0,107.239,534.709,162.995)">
                <path d="M0.28,-0.73C0.28,-0.725 0.281,-0.721 0.281,-0.718L0.281,-0.708C0.281,-0.696 0.278,-0.677 0.274,-0.65C0.269,-0.624 0.26,-0.592 0.247,-0.553C0.269,-0.582 0.288,-0.607 0.304,-0.628C0.321,-0.65 0.337,-0.669 0.351,-0.684C0.365,-0.699 0.378,-0.71 0.391,-0.718C0.404,-0.726 0.417,-0.73 0.43,-0.73C0.441,-0.73 0.454,-0.727 0.469,-0.721C0.484,-0.715 0.499,-0.707 0.512,-0.696C0.526,-0.686 0.537,-0.673 0.547,-0.658C0.556,-0.644 0.561,-0.627 0.561,-0.61C0.561,-0.589 0.557,-0.568 0.549,-0.546C0.541,-0.525 0.529,-0.504 0.513,-0.484C0.496,-0.464 0.476,-0.444 0.452,-0.426C0.427,-0.408 0.399,-0.391 0.366,-0.375C0.389,-0.379 0.409,-0.382 0.426,-0.384C0.442,-0.386 0.456,-0.387 0.468,-0.387C0.48,-0.387 0.491,-0.384 0.501,-0.378C0.511,-0.373 0.52,-0.365 0.528,-0.356C0.535,-0.348 0.541,-0.338 0.545,-0.328C0.55,-0.318 0.552,-0.308 0.552,-0.299C0.552,-0.282 0.549,-0.263 0.545,-0.244C0.54,-0.225 0.533,-0.206 0.524,-0.187C0.515,-0.168 0.503,-0.149 0.49,-0.131C0.476,-0.113 0.461,-0.096 0.444,-0.08C0.425,-0.063 0.407,-0.049 0.388,-0.038C0.37,-0.026 0.351,-0.017 0.331,-0.009C0.312,-0.002 0.291,0.004 0.27,0.007C0.249,0.01 0.227,0.012 0.203,0.012C0.171,0.012 0.143,0.01 0.119,0.005C0.096,0 0.076,-0.008 0.059,-0.02C0.049,-0.027 0.04,-0.035 0.032,-0.044C0.024,-0.053 0.017,-0.062 0.011,-0.072C0.006,-0.081 0.001,-0.09 -0.002,-0.099C-0.005,-0.107 -0.007,-0.115 -0.007,-0.121C-0.007,-0.129 -0.004,-0.139 0.001,-0.152C0.007,-0.165 0.014,-0.181 0.023,-0.199C0.032,-0.217 0.042,-0.238 0.054,-0.262C0.066,-0.286 0.078,-0.314 0.092,-0.344C0.118,-0.404 0.132,-0.49 0.132,-0.602C0.132,-0.636 0.131,-0.666 0.129,-0.691L0.28,-0.73ZM0.288,-0.057C0.307,-0.073 0.323,-0.089 0.338,-0.107C0.352,-0.125 0.364,-0.142 0.373,-0.16C0.383,-0.178 0.39,-0.196 0.395,-0.213C0.399,-0.231 0.402,-0.248 0.402,-0.263C0.402,-0.271 0.401,-0.279 0.4,-0.287C0.399,-0.295 0.397,-0.303 0.394,-0.311C0.382,-0.316 0.369,-0.319 0.354,-0.321C0.34,-0.323 0.325,-0.324 0.31,-0.324C0.305,-0.324 0.299,-0.324 0.293,-0.323C0.288,-0.323 0.281,-0.32 0.275,-0.317L0.26,-0.323L0.249,-0.381C0.289,-0.384 0.325,-0.403 0.355,-0.436C0.385,-0.469 0.409,-0.517 0.427,-0.579C0.421,-0.588 0.414,-0.595 0.406,-0.602C0.398,-0.608 0.388,-0.615 0.378,-0.62C0.346,-0.596 0.319,-0.567 0.296,-0.535C0.274,-0.502 0.254,-0.465 0.237,-0.423C0.219,-0.381 0.205,-0.335 0.192,-0.284C0.179,-0.233 0.167,-0.177 0.156,-0.116C0.176,-0.104 0.197,-0.093 0.219,-0.083C0.24,-0.074 0.263,-0.065 0.288,-0.057Z" style="fill:white;fill-rule:nonzero;"/>
            </g>
            <g transform="matrix(107.239,0,0,107.239,601,162.995)">
                <path d="M0.137,-0.084C0.18,-0.117 0.212,-0.154 0.233,-0.194C0.254,-0.234 0.264,-0.279 0.264,-0.328C0.264,-0.346 0.262,-0.361 0.259,-0.375C0.255,-0.389 0.25,-0.402 0.243,-0.412L0.228,-0.411C0.211,-0.395 0.196,-0.376 0.183,-0.353C0.169,-0.331 0.157,-0.307 0.147,-0.281C0.138,-0.255 0.13,-0.229 0.125,-0.203C0.12,-0.176 0.117,-0.151 0.117,-0.128C0.117,-0.123 0.117,-0.119 0.118,-0.115C0.118,-0.111 0.118,-0.107 0.119,-0.103L0.137,-0.084ZM0.11,0.012C0.069,-0.012 0.039,-0.038 0.019,-0.066C-0.001,-0.094 -0.011,-0.123 -0.011,-0.154C-0.011,-0.185 -0.007,-0.216 0.002,-0.247C0.011,-0.278 0.024,-0.308 0.042,-0.336C0.059,-0.365 0.08,-0.391 0.105,-0.416C0.13,-0.44 0.159,-0.462 0.192,-0.48L0.227,-0.448L0.358,-0.481L0.375,-0.465C0.38,-0.453 0.384,-0.439 0.388,-0.422C0.392,-0.406 0.394,-0.388 0.394,-0.367C0.394,-0.33 0.388,-0.293 0.375,-0.256C0.362,-0.219 0.344,-0.184 0.32,-0.15C0.295,-0.117 0.266,-0.086 0.23,-0.058C0.195,-0.03 0.155,-0.007 0.11,0.012Z" style="fill:white;fill-rule:nonzero;"/>
            </g>
            <g transform="matrix(107.239,0,0,107.239,649.174,162.995)">
                <path d="M0.14,-0.255C0.164,-0.26 0.184,-0.265 0.2,-0.27C0.216,-0.275 0.228,-0.283 0.238,-0.293C0.248,-0.303 0.254,-0.316 0.258,-0.333C0.262,-0.35 0.264,-0.372 0.264,-0.4L0.264,-0.422C0.243,-0.42 0.225,-0.416 0.209,-0.41C0.192,-0.382 0.177,-0.355 0.165,-0.33C0.153,-0.305 0.145,-0.28 0.14,-0.255ZM-0.013,-0.121C-0.013,-0.142 -0.011,-0.164 -0.006,-0.188C-0.001,-0.212 0.006,-0.236 0.015,-0.261C0.025,-0.286 0.036,-0.312 0.05,-0.337C0.064,-0.363 0.081,-0.388 0.099,-0.412C0.113,-0.423 0.128,-0.433 0.145,-0.442C0.161,-0.451 0.178,-0.458 0.196,-0.464C0.213,-0.471 0.231,-0.475 0.25,-0.478C0.269,-0.481 0.287,-0.483 0.305,-0.483C0.32,-0.483 0.333,-0.481 0.344,-0.478C0.355,-0.475 0.363,-0.469 0.37,-0.461C0.376,-0.454 0.381,-0.443 0.384,-0.43C0.387,-0.417 0.388,-0.401 0.388,-0.381C0.388,-0.358 0.387,-0.339 0.384,-0.324C0.381,-0.31 0.377,-0.298 0.372,-0.288C0.366,-0.279 0.359,-0.272 0.351,-0.266C0.343,-0.261 0.333,-0.256 0.322,-0.252C0.291,-0.24 0.258,-0.229 0.225,-0.219C0.192,-0.209 0.158,-0.2 0.121,-0.192C0.127,-0.169 0.134,-0.149 0.143,-0.131C0.151,-0.114 0.162,-0.099 0.175,-0.085C0.205,-0.09 0.234,-0.101 0.263,-0.117C0.292,-0.133 0.322,-0.152 0.354,-0.175L0.346,-0.101C0.318,-0.08 0.291,-0.062 0.265,-0.047C0.239,-0.033 0.215,-0.021 0.194,-0.012C0.173,-0.003 0.155,0.003 0.14,0.007C0.125,0.01 0.115,0.012 0.109,0.012C0.102,0.012 0.093,0.01 0.082,0.005C0.072,-0 0.061,-0.008 0.049,-0.018C0.038,-0.027 0.027,-0.04 0.016,-0.054C0.005,-0.069 -0.005,-0.086 -0.013,-0.106L-0.013,-0.121Z" style="fill:white;fill-rule:nonzero;"/>
            </g>
            <g transform="matrix(107.239,0,0,107.239,697.557,162.995)">
                <path d="M0.165,-0.49C0.165,-0.484 0.165,-0.479 0.166,-0.475C0.166,-0.472 0.166,-0.469 0.166,-0.468C0.166,-0.443 0.165,-0.418 0.163,-0.392C0.16,-0.366 0.157,-0.34 0.154,-0.312C0.176,-0.353 0.198,-0.388 0.218,-0.416C0.238,-0.443 0.259,-0.464 0.281,-0.478L0.304,-0.477C0.311,-0.473 0.317,-0.469 0.324,-0.464C0.331,-0.459 0.338,-0.453 0.344,-0.447C0.336,-0.427 0.327,-0.405 0.318,-0.382C0.309,-0.359 0.3,-0.334 0.292,-0.308C0.28,-0.312 0.267,-0.315 0.254,-0.318C0.241,-0.32 0.228,-0.323 0.215,-0.325C0.199,-0.308 0.186,-0.29 0.177,-0.271C0.167,-0.252 0.16,-0.233 0.154,-0.212C0.148,-0.192 0.144,-0.171 0.14,-0.15C0.137,-0.128 0.133,-0.106 0.128,-0.083C0.117,-0.028 0.102,-0 0.083,-0C0.076,-0 0.068,-0.002 0.061,-0.006C0.053,-0.01 0.046,-0.015 0.039,-0.022C0.032,-0.028 0.025,-0.036 0.019,-0.044C0.013,-0.053 0.007,-0.061 0.003,-0.07C-0.002,-0.078 -0.006,-0.087 -0.008,-0.094C-0.011,-0.102 -0.012,-0.109 -0.012,-0.115C-0.012,-0.123 -0.009,-0.132 -0.003,-0.142C0.003,-0.152 0.01,-0.165 0.018,-0.18C0.026,-0.196 0.032,-0.21 0.037,-0.222C0.042,-0.234 0.045,-0.245 0.048,-0.254C0.05,-0.264 0.052,-0.272 0.053,-0.28C0.054,-0.287 0.054,-0.294 0.054,-0.3C0.054,-0.304 0.053,-0.321 0.053,-0.324C0.053,-0.346 0.053,-0.367 0.052,-0.389C0.05,-0.411 0.048,-0.434 0.044,-0.457L0.165,-0.49Z" style="fill:white;fill-rule:nonzero;"/>
            </g>
        </g>
    </g>
</svg>
